<?xml version="1.0" encoding="iso-8859-1"?>
<!-- Uploaded to: SVG Repo, www.svgrepo.com, Generator: SVG Repo Mixer Tools -->
<!DOCTYPE svg PUBLIC "-//W3C//DTD SVG 1.1//EN" "http://www.w3.org/Graphics/SVG/1.1/DTD/svg11.dtd">
<svg fill="#000000" version="1.1" id="Capa_1" xmlns="http://www.w3.org/2000/svg" xmlns:xlink="http://www.w3.org/1999/xlink" 
	 width="800px" height="800px" viewBox="0 0 113.52 113.52"
	 xml:space="preserve">
<g>
	<path d="M112.38,15.248c-0.715-0.288-1.854-0.89-3.21-1.248c-1.358-0.381-3.192-1.023-5.062-1.181
		c-1.889-0.196-4.024-0.256-6.365-0.144c-2.272,0.185-4.593,0.669-7.07,1.311c-2.48,0.642-4.75,1.706-7.166,2.87
		c-2.364,1.207-4.517,2.706-6.673,4.346c-2.047,1.689-3.977,3.564-5.746,5.551c-1.649,2.043-3.288,4.149-4.552,6.391
		c-1.304,2.233-2.426,4.524-3.24,6.872c-1.735,4.647-2.427,9.431-2.5,13.688c0.007,2.161,0.134,4.163,0.404,6.011
		c0.23,1.824,0.689,3.521,1.043,4.887c0.147,0.647,0.348,1.256,0.543,1.804c0.346-0.732,0.726-1.509,1.149-2.348
		c2.098-4.165,5.157-9.58,8.73-14.653c1.779-2.541,3.729-4.952,5.64-7.139c1.006-1.051,1.978-2.057,2.901-3.017
		c0.986-0.89,1.924-1.731,2.779-2.505c0.924-0.698,1.779-1.333,2.532-1.899c0.719-0.601,1.479-0.95,2.047-1.308
		c1.156-0.684,1.813-1.076,1.813-1.076s-0.626,0.441-1.725,1.213c-0.534,0.405-1.246,0.801-1.92,1.455
		c-0.694,0.616-1.479,1.305-2.338,2.063c-0.787,0.83-1.636,1.727-2.539,2.676c-0.828,1.01-1.7,2.076-2.604,3.176
		c-1.7,2.291-3.418,4.798-4.958,7.419c-3.104,5.22-5.664,10.741-7.386,14.95c-0.267,0.653-0.506,1.256-0.725,1.827
		c-2.095,4.85-3.216,9.859-3.773,14.493c-1.397-4.518-3.438-9.322-6.434-13.777c-0.322-0.524,2.705-2.104,3.183-1.448
		c0.094-0.571,0.178-1.211,0.204-1.868c0.097-1.406,0.237-3.155,0.131-4.996c-0.073-1.858-0.318-3.86-0.706-5.982
		c-0.855-4.17-2.411-8.749-4.973-12.997c-1.23-2.154-2.755-4.208-4.443-6.16c-1.655-1.973-3.655-3.742-5.65-5.45
		c-2.106-1.629-4.348-3.114-6.665-4.404c-2.424-1.216-4.815-2.291-7.363-3.045c-2.589-0.7-5.015-1.332-7.573-1.506
		c-2.555-0.18-4.919-0.226-7.19,0.01c-2.331,0.322-4.419,0.77-6.242,1.311c-1.807,0.501-3.496,1.461-4.755,2.087
		c-1.268,0.607-2.277,1.407-2.926,1.826C0.351,25.793,0,26.108,0,26.108s0.214,0.411,0.614,1.188
		c0.413,0.669,0.946,1.851,1.646,2.943c0.645,1.109,1.42,2.46,2.307,4.014c0.837,1.509,1.749,3.047,2.702,4.559
		c0.957,1.542,1.946,3.234,3.013,4.721c1.066,1.509,2.177,3.181,3.396,4.576c2.404,2.989,5.176,5.723,8.294,8.192
		c1.538,1.297,3.232,2.358,4.924,3.504c1.706,1.105,3.532,2.058,5.368,2.988c1.875,0.872,3.754,1.714,5.694,2.392
		c1.953,0.678,3.849,1.321,5.761,1.814c1.893,0.506,3.751,0.913,5.474,1.229c1.177,0.242,2.316,0.387,3.377,0.52
		c9.624,13.473,9.659,31.433,9.659,31.658l0.536,0.004c0.043,0.236,0.073,0.424,0.087,0.492l2.414-0.469h0.147
		c0-0.007,0-0.027,0-0.03l0.568-0.109c-0.045-0.227-3.305-17.888,3.679-32.894c1.026-0.332,2.115-0.678,3.23-1.133
		c1.636-0.634,3.388-1.369,5.154-2.215c1.789-0.831,3.538-1.813,5.328-2.837c1.782-1.026,3.48-2.196,5.157-3.401
		c1.636-1.253,3.258-2.516,4.732-3.92c1.454-1.439,2.923-2.789,4.199-4.348c2.614-2.996,4.835-6.196,6.649-9.57
		c0.94-1.592,1.728-3.444,2.494-5.12c0.78-1.662,1.441-3.504,2.095-5.193c0.66-1.658,1.272-3.34,1.82-4.978
		c0.589-1.685,1.103-3.157,1.533-4.365c0.489-1.203,0.798-2.46,1.078-3.196c0.25-0.833,0.387-1.276,0.387-1.276
		S113.113,15.585,112.38,15.248z M24.436,40.777l9.469-0.014L20.48,30.158h5.607l19.438,14.679h-9.406l13.482,13.485L24.436,40.777z
		"/>
</g>
</svg>